<svg xmlns="http://www.w3.org/2000/svg" viewBox="0 0 100 100" width="100" height="100">
  <circle cx="50" cy="50" r="45" fill="#4F46E5" opacity="0.1"/>
  <circle cx="50" cy="50" r="35" fill="#4F46E5" opacity="0.2"/>
  <path d="M50 20 L70 40 L65 45 L50 30 L35 45 L30 40 L50 20Z" fill="#4F46E5"/>
  <path d="M50 80 L30 60 L35 55 L50 70 L65 55 L70 60 L50 80Z" fill="#4F46E5"/>
  <path d="M20 50 L40 30 L45 35 L30 50 L45 65 L40 70 L20 50Z" fill="#4F46E5"/>
  <path d="M80 50 L60 30 L55 35 L70 50 L55 65 L60 70 L80 50Z" fill="#4F46E5"/>
  <circle cx="50" cy="50" r="8" fill="#4F46E5"/>
</svg>